<?xml version="1.0" standalone="no"?>
<!DOCTYPE svg PUBLIC "-//W3C//DTD SVG 20010904//EN"
 "http://www.w3.org/TR/2001/REC-SVG-20010904/DTD/svg10.dtd">
<svg version="1.0" xmlns="http://www.w3.org/2000/svg"
 width="512.000000pt" height="512.000000pt" viewBox="0 0 512.000000 512.000000"
 preserveAspectRatio="xMidYMid meet">

<g transform="translate(0.000000,512.000000) scale(0.100000,-0.100000)"
fill="#000000" stroke="none">
<path d="M2365 5114 c-392 -40 -702 -132 -1013 -299 -663 -355 -1148 -1001
-1296 -1726 -43 -210 -51 -294 -51 -529 0 -309 33 -519 124 -799 255 -778 872
-1390 1656 -1640 260 -83 477 -116 775 -116 234 0 315 8 527 51 880 178 1621
842 1904 1705 91 280 124 490 124 799 0 235 -8 319 -51 529 -148 722 -634
1372 -1292 1724 -271 146 -533 231 -862 283 -91 14 -461 27 -545 18z m344
-1060 c19 -24 21 -40 21 -164 l0 -137 86 -7 c98 -7 205 -28 300 -57 54 -17 70
-27 94 -61 37 -50 39 -104 10 -211 -16 -58 -27 -79 -59 -109 -36 -34 -45 -38
-95 -38 -31 0 -75 6 -98 14 -117 39 -347 60 -453 41 -70 -13 -144 -54 -171
-95 -54 -81 -41 -164 36 -233 64 -57 131 -92 345 -178 211 -84 276 -115 366
-175 145 -98 235 -218 269 -364 20 -84 18 -273 -4 -344 -38 -128 -113 -243
-213 -328 -72 -61 -232 -141 -337 -168 -44 -11 -82 -22 -85 -26 -3 -3 -4 -67
-2 -143 5 -220 -11 -237 -213 -229 -151 5 -150 4 -154 196 -2 98 -7 149 -15
154 -7 4 -30 8 -52 8 -84 1 -304 46 -415 85 -78 28 -120 82 -120 157 0 57 35
184 61 220 44 61 120 74 225 38 153 -53 222 -64 394 -65 165 0 165 0 230 31
107 51 141 98 141 190 0 67 -27 125 -79 172 -48 43 -184 109 -346 167 -219 79
-349 151 -464 260 -235 221 -229 611 13 850 90 88 196 149 334 191 l106 32 5
157 c6 203 -1 195 185 195 132 0 134 0 154 -26z"/>
</g>
</svg>
