<?xml version="1.0" standalone="no"?>
<!DOCTYPE svg PUBLIC "-//W3C//DTD SVG 20010904//EN"
 "http://www.w3.org/TR/2001/REC-SVG-20010904/DTD/svg10.dtd">
<svg version="1.0" xmlns="http://www.w3.org/2000/svg"
 width="512.000000pt" height="512.000000pt" viewBox="0 0 512.000000 512.000000"
 preserveAspectRatio="xMidYMid meet">

<g transform="translate(0.000000,512.000000) scale(0.100000,-0.100000)"
fill="#000000" stroke="none">
<path d="M3685 5100 c-111 -17 -198 -43 -227 -68 -25 -21 -23 -77 2 -102 25
-25 52 -25 143 1 112 31 306 37 428 11 200 -41 375 -137 512 -281 187 -196
270 -408 268 -684 -2 -255 -95 -480 -277 -663 -177 -180 -384 -272 -648 -291
-101 -7 -102 -7 -179 -113 -18 -25 -57 -62 -86 -82 -51 -36 -167 -89 -224
-104 l-29 -7 20 39 c28 56 52 129 67 209 12 59 11 74 -1 104 -16 37 -30 50
-110 96 -198 114 -371 344 -436 580 -29 108 -32 374 -5 475 53 193 126 318
270 463 117 118 129 143 84 185 -34 32 -68 27 -124 -16 -150 -120 -282 -311
-347 -505 -165 -493 38 -1043 487 -1316 20 -12 37 -30 37 -39 0 -41 -60 -183
-104 -247 -40 -59 -47 -75 -42 -104 6 -40 30 -69 72 -87 26 -11 42 -11 100 2
218 45 404 146 494 267 30 41 40 47 80 52 126 14 203 30 285 57 384 125 667
446 750 853 21 104 21 303 0 415 -73 378 -348 706 -708 840 -117 44 -210 61
-352 65 -77 2 -167 0 -200 -5z"/>
<path d="M1412 4619 c-253 -29 -475 -139 -657 -324 -136 -138 -229 -300 -281
-490 -26 -96 -27 -112 -31 -395 -4 -264 -6 -300 -23 -342 -26 -60 -25 -137 0
-196 19 -44 20 -65 18 -327 l-3 -280 -100 -5 c-175 -9 -177 -14 -183 -328 -2
-127 -1 -252 3 -277 11 -78 77 -111 123 -62 20 21 21 33 24 267 l3 245 1233 3
1232 2 0 -790 0 -790 -1232 2 -1233 3 -3 399 c-2 240 -7 406 -13 417 -12 24
-54 35 -88 23 -47 -17 -50 -47 -50 -454 0 -206 0 -381 -1 -387 0 -8 -14 -13
-35 -13 -26 0 -45 -9 -73 -34 l-37 -34 -3 -170 c-4 -191 3 -217 61 -252 32
-20 70 -20 2497 -20 2455 0 2465 0 2498 20 55 34 64 70 60 257 l-3 165 -36 33
c-32 29 -45 34 -110 40 -41 3 -518 5 -1062 3 l-987 -3 0 813 c0 895 2 863 -62
902 -27 16 -50 20 -124 20 -76 0 -93 3 -98 17 -4 9 -6 136 -6 282 1 240 3 270
21 310 25 58 25 145 -1 202 -18 40 -20 67 -20 319 0 234 -3 288 -20 362 -46
211 -129 370 -271 522 -177 189 -406 308 -659 342 -116 15 -159 16 -268 3z
m361 -173 c327 -83 600 -356 682 -681 22 -86 34 -235 34 -422 l1 -143 -35 0
-35 0 0 55 c0 67 -15 101 -49 114 -14 5 -82 12 -151 14 -233 8 -427 83 -598
229 -79 68 -88 67 -190 -15 -102 -83 -247 -155 -372 -187 -54 -14 -135 -25
-223 -29 -169 -8 -177 -14 -180 -112 l-2 -64 -32 -3 -33 -3 0 208 c0 285 19
389 101 550 203 397 649 599 1082 489z m-196 -989 c149 -120 386 -210 598
-225 l90 -7 3 -210 c3 -229 -5 -309 -43 -418 -40 -114 -129 -244 -214 -310
l-35 -27 -445 0 -446 0 -76 80 c-59 61 -88 102 -123 172 -70 143 -79 193 -80
473 l-1 240 89 7 c195 15 385 79 537 182 52 35 99 64 106 65 6 0 24 -9 40 -22z
m-919 -484 c-3 -77 -3 -78 -30 -81 -39 -5 -78 36 -78 82 0 42 37 76 82 76 l29
0 -3 -77z m1834 63 c60 -45 30 -145 -44 -146 l-28 0 0 80 0 80 28 0 c15 0 35
-6 44 -14z m-1827 -323 c33 -161 84 -288 155 -383 22 -29 40 -57 40 -61 0 -4
-61 -8 -135 -8 l-135 -2 0 241 0 240 35 0 c30 0 35 -4 40 -27z m1823 -193 c1
-118 0 -225 -3 -237 -5 -22 -9 -23 -140 -23 -74 0 -135 2 -135 5 0 2 20 32 44
67 76 110 134 247 150 361 l7 48 37 -3 37 -3 3 -215z m2482 -2250 l0 -110
-2410 0 -2410 0 0 110 0 110 2410 0 2410 0 0 -110z"/>
<path d="M1212 3123 c-25 -10 -42 -62 -42 -130 0 -78 14 -113 53 -131 22 -11
31 -10 55 2 38 20 42 31 42 135 0 79 -2 90 -23 109 -22 21 -56 27 -85 15z"/>
<path d="M1775 3105 c-23 -22 -25 -32 -25 -114 0 -79 3 -93 21 -110 29 -27 52
-31 87 -14 36 18 42 35 42 136 0 69 -3 81 -25 102 -13 14 -36 25 -50 25 -14 0
-37 -11 -50 -25z"/>
<path d="M1391 2583 c-32 -27 -37 -73 -11 -106 35 -44 90 -67 163 -67 70 0
112 20 150 72 27 36 14 87 -28 107 -26 13 -33 12 -69 -8 -51 -26 -88 -27 -111
-1 -22 25 -66 26 -94 3z"/>
<path d="M3334 4433 c-53 -10 -75 -83 -39 -123 18 -20 30 -20 551 -20 l533 0
20 26 c12 15 21 33 21 40 0 29 -25 64 -53 74 -29 10 -983 13 -1033 3z"/>
<path d="M3301 4103 c-36 -31 -32 -92 8 -116 26 -15 76 -17 545 -17 l517 0 24
25 c14 13 25 36 25 50 0 14 -11 37 -25 50 l-24 25 -524 0 c-485 0 -526 -1
-546 -17z"/>
<path d="M3325 3800 c-49 -19 -64 -82 -30 -120 17 -19 30 -20 352 -20 320 0
334 1 353 20 38 38 22 100 -31 119 -38 13 -613 14 -644 1z"/>
<path d="M1399 1606 c-80 -21 -147 -79 -189 -163 -35 -68 -34 -178 0 -247 89
-179 304 -229 458 -107 72 58 107 132 107 231 0 99 -35 173 -107 230 -80 64
-171 83 -269 56z m151 -156 c45 -23 80 -80 80 -130 0 -111 -132 -187 -220
-127 -54 36 -75 72 -75 127 0 55 21 91 75 128 41 27 89 28 140 2z"/>
</g>
</svg>
