<?xml version="1.0" standalone="no"?>
<!DOCTYPE svg PUBLIC "-//W3C//DTD SVG 20010904//EN"
 "http://www.w3.org/TR/2001/REC-SVG-20010904/DTD/svg10.dtd">
<svg version="1.0" xmlns="http://www.w3.org/2000/svg"
 width="512.000000pt" height="512.000000pt" viewBox="0 0 512.000000 512.000000"
 preserveAspectRatio="xMidYMid meet">

<g transform="translate(0.000000,512.000000) scale(0.100000,-0.100000)"
fill="#000000" stroke="none">
<path d="M1775 4900 c-11 -4 -127 -116 -257 -247 -214 -215 -238 -242 -238
-272 0 -41 26 -86 57 -100 34 -16 2412 -15 2447 0 60 28 71 122 20 170 l-26
24 -1066 3 -1066 2 132 133 c141 141 157 168 133 229 -17 46 -92 77 -136 58z"/>
<path d="M54 4039 c-11 -6 -28 -23 -37 -39 -16 -26 -17 -139 -17 -1440 0
-1299 1 -1414 17 -1440 9 -16 27 -33 40 -39 34 -16 4972 -16 5006 0 13 6 31
23 40 39 16 26 17 141 17 1440 0 1299 -1 1414 -17 1440 -9 16 -27 33 -40 39
-32 15 -4979 14 -5009 0z m4856 -1479 l0 -1280 -2350 0 -2350 0 0 1280 0 1280
2350 0 2350 0 0 -1280z"/>
<path d="M824 3623 c-38 -7 -65 -47 -79 -118 -8 -37 -23 -81 -33 -98 -29 -50
-89 -86 -162 -97 -52 -8 -70 -16 -92 -40 l-28 -30 0 -680 0 -680 28 -30 c22
-24 40 -32 92 -40 73 -11 133 -47 162 -97 10 -17 25 -61 33 -99 10 -46 22 -76
40 -93 l25 -26 1751 0 1751 0 28 31 c20 23 29 47 34 87 9 67 49 135 99 166 20
12 64 26 99 32 50 7 69 16 91 39 l27 30 0 680 0 680 -27 30 c-22 23 -41 32
-91 39 -35 6 -79 20 -99 32 -50 31 -90 99 -99 166 -5 40 -14 64 -34 87 l-28
31 -1734 1 c-953 1 -1743 -1 -1754 -3z m1000 -295 c-218 -209 -327 -465 -327
-768 -1 -298 111 -561 326 -767 l87 -83 -483 0 -482 0 -18 49 c-34 97 -140
202 -239 238 l-48 18 0 545 0 545 48 17 c97 36 204 143 240 241 l17 47 482 0
483 0 -86 -82z m986 47 c99 -32 143 -53 225 -108 181 -123 315 -323 362 -541
25 -116 13 -306 -26 -426 -96 -297 -360 -528 -667 -581 -109 -19 -292 -7 -394
26 -99 32 -143 53 -225 108 -195 132 -326 333 -366 561 -7 41 -10 118 -7 190
4 102 10 137 38 218 86 259 290 464 541 547 107 35 147 40 294 37 120 -3 152
-7 225 -31z m1383 -14 c34 -97 140 -202 240 -238 l47 -18 0 -545 0 -545 -47
-17 c-98 -36 -205 -143 -241 -240 l-17 -48 -483 0 -483 0 87 82 c216 205 328
469 327 773 -1 298 -114 561 -327 763 l-87 82 483 0 483 0 18 -49z"/>
<path d="M1043 2663 c-38 -7 -83 -57 -83 -91 0 -48 17 -80 52 -102 60 -36 118
-20 150 43 19 38 19 42 3 82 -11 31 -25 48 -49 59 -19 9 -38 15 -43 15 -4 -1
-18 -4 -30 -6z"/>
<path d="M2513 3294 c-42 -21 -63 -68 -63 -142 l0 -59 -49 -6 c-147 -17 -264
-156 -264 -312 0 -132 68 -236 192 -293 51 -24 69 -27 206 -30 83 -1 160 -5
173 -8 47 -10 76 -93 51 -147 -24 -53 -47 -57 -302 -57 -130 0 -247 -4 -261
-10 -68 -25 -82 -120 -25 -172 29 -27 32 -28 154 -28 l125 0 0 -61 c0 -76 21
-122 65 -143 41 -20 49 -20 90 0 44 21 65 67 65 143 0 61 0 61 30 61 53 0 137
39 185 86 149 145 126 389 -48 500 -61 40 -138 54 -285 54 -73 0 -142 5 -153
10 -42 23 -64 115 -36 150 37 48 48 50 299 50 130 0 248 4 262 10 68 25 82
120 25 173 -29 26 -32 27 -154 27 l-125 0 0 61 c0 77 -20 121 -66 142 -42 21
-51 21 -91 1z"/>
<path d="M4023 2663 c-12 -2 -34 -18 -48 -34 -57 -69 -13 -172 74 -172 52 0
92 28 105 72 23 79 -46 149 -131 134z"/>
<path d="M1955 850 c-335 -3 -617 -9 -626 -13 -9 -5 -24 -23 -34 -41 -23 -42
-14 -94 21 -127 l26 -24 1066 -3 1066 -2 -134 -135 -135 -135 0 -49 c0 -34 6
-55 19 -70 25 -27 87 -44 118 -32 29 12 450 428 478 473 11 18 20 43 20 56 0
31 -25 78 -47 87 -26 11 -550 24 -913 22 -173 -1 -589 -4 -925 -7z"/>
</g>
</svg>
