<?xml version="1.0" standalone="no"?>
<!DOCTYPE svg PUBLIC "-//W3C//DTD SVG 20010904//EN"
 "http://www.w3.org/TR/2001/REC-SVG-20010904/DTD/svg10.dtd">
<svg version="1.0" xmlns="http://www.w3.org/2000/svg"
 width="626.000000pt" height="626.000000pt" viewBox="0 0 626.000000 626.000000"
 preserveAspectRatio="xMidYMid meet">

<g transform="translate(0.000000,626.000000) scale(0.100000,-0.100000)"
fill="#000000" stroke="none">
<path d="M2690 5380 c-321 -45 -532 -384 -433 -695 53 -168 199 -308 368 -356
64 -18 226 -18 290 0 77 22 172 79 235 141 280 278 170 753 -204 883 -81 28
-176 38 -256 27z"/>
<path d="M4609 4336 c-2 -2 -101 -29 -219 -60 -118 -30 -269 -69 -335 -86
l-120 -31 -110 20 c-349 65 -600 82 -785 52 -268 -42 -619 -171 -800 -294
-265 -179 -458 -425 -565 -721 -32 -89 -42 -101 -96 -116 l-29 -9 0 63 c0 134
-65 246 -142 246 -48 0 -122 -51 -154 -106 -58 -98 -50 -167 28 -248 27 -28
48 -51 48 -53 0 -10 -76 0 -112 14 -137 54 -199 193 -182 413 6 72 4 88 -10
99 -20 17 -71 -1 -91 -33 -41 -66 -19 -305 39 -428 43 -90 83 -133 161 -170
51 -24 72 -28 143 -28 92 0 124 11 187 63 25 20 58 36 93 43 l54 11 -7 -71
c-10 -101 -7 -362 6 -474 23 -211 92 -406 190 -538 52 -71 147 -164 231 -226
52 -39 70 -59 78 -87 9 -31 29 -224 30 -289 0 -12 15 -38 33 -58 l33 -36 224
-19 c124 -11 239 -18 256 -14 17 3 44 19 60 36 25 26 29 37 28 84 -1 30 -5 71
-9 91 l-6 37 48 -6 c26 -4 80 -11 118 -17 39 -5 145 -9 237 -10 l167 0 11 -57
c18 -94 30 -121 61 -148 30 -25 33 -25 206 -25 246 0 249 2 267 210 l11 125
51 3 52 3 12 -53 c20 -83 51 -131 97 -149 14 -5 111 -1 250 12 246 21 299 35
322 85 15 34 14 56 -10 178 l-21 107 39 42 c21 23 58 80 82 127 59 116 81 143
148 183 73 44 136 63 265 78 119 14 152 31 168 87 5 21 10 154 10 310 0 304
-4 326 -62 362 -19 11 -51 20 -74 20 -68 0 -84 21 -100 126 -18 123 -64 267
-123 384 -46 93 -118 208 -148 238 -7 7 -13 16 -13 20 0 4 -19 27 -43 53 -74
80 -71 68 -43 158 29 93 51 286 42 365 -6 41 -14 61 -38 85 -26 27 -37 31 -83
31 -28 0 -54 -2 -56 -4z m-59 -286 c0 -50 -25 -132 -62 -199 -54 -99 -49 -121
42 -216 37 -38 84 -90 104 -115 20 -25 40 -50 44 -55 31 -39 89 -140 121 -213
51 -112 78 -207 90 -309 16 -130 69 -212 167 -258 35 -17 56 -33 59 -48 3 -12
4 -85 3 -162 -3 -139 -3 -140 -28 -146 -14 -4 -61 -17 -105 -28 -157 -42 -299
-132 -361 -231 -17 -27 -47 -80 -65 -117 -19 -36 -57 -91 -86 -120 -61 -63
-68 -88 -58 -207 l7 -84 -69 -7 c-37 -3 -82 -8 -100 -11 -31 -5 -32 -3 -75 83
-63 127 -69 130 -261 114 -205 -16 -221 -27 -252 -161 -8 -36 -15 -81 -15
-100 -1 -68 -9 -81 -48 -78 -32 3 -37 7 -44 38 -28 116 -78 190 -127 190 -327
0 -514 9 -601 29 -131 29 -180 28 -220 -5 -44 -38 -72 -98 -78 -171 l-5 -63
-71 6 c-99 8 -96 6 -96 67 0 63 -40 222 -67 269 -10 18 -50 57 -89 85 -149
113 -213 182 -268 291 -74 147 -96 262 -103 538 -5 192 -3 222 17 320 64 315
217 549 488 749 238 174 738 318 1012 291 183 -19 465 -66 517 -87 36 -15 67
-9 358 68 303 81 325 84 325 53z m-3151 -813 c14 -16 24 -42 28 -77 l6 -52
-27 17 c-34 23 -75 91 -69 116 7 26 35 24 62 -4z"/>
<path d="M2950 3609 c-200 -45 -346 -118 -503 -252 -57 -48 -64 -132 -16 -183
46 -49 120 -39 188 25 72 67 174 124 291 162 67 21 93 24 235 24 145 -1 170
-3 265 -29 58 -16 128 -31 156 -33 45 -4 54 -1 82 25 28 26 32 37 32 79 -1 83
-32 105 -217 154 -106 28 -136 31 -293 35 -97 1 -195 -2 -220 -7z"/>
<path d="M4484 3248 c-28 -13 -60 -72 -69 -126 -15 -91 48 -202 113 -202 37 1
80 41 97 91 50 140 -38 287 -141 237z"/>
</g>
</svg>
